solid OpenSCAD_Model
  facet normal 0 -1 0
    outer loop
      vertex -4.33 -2.5 0
      vertex 4.33 -2.5 0
      vertex 4.33 -2.5 2
    endloop
  endfacet
  facet normal 0 -1 0
    outer loop
      vertex -4.33 -2.5 2
      vertex -4.33 -2.5 0
      vertex 4.33 -2.5 2
    endloop
  endfacet
  facet normal 0 0 -1
    outer loop
      vertex -4.33 -2.5 0
      vertex 0 5 0
      vertex 4.33 -2.5 0
    endloop
  endfacet
  facet normal -0.866032 0.499989 0
    outer loop
      vertex -4.33 -2.5 2
      vertex 0 5 2
      vertex -4.33 -2.5 0
    endloop
  endfacet
  facet normal -0.866032 0.499989 0
    outer loop
      vertex -4.33 -2.5 0
      vertex 0 5 2
      vertex 0 5 0
    endloop
  endfacet
  facet normal 0 0 1
    outer loop
      vertex -4.33 -2.5 2
      vertex 4.33 -2.5 2
      vertex 0 5 2
    endloop
  endfacet
  facet normal 0.866032 0.499989 0
    outer loop
      vertex 0 5 0
      vertex 0 5 2
      vertex 4.33 -2.5 2
    endloop
  endfacet
  facet normal 0.866032 0.499989 0
    outer loop
      vertex 4.33 -2.5 0
      vertex 0 5 0
      vertex 4.33 -2.5 2
    endloop
  endfacet
endsolid OpenSCAD_Model
